# xmcd CD database file generated by OrangeCD 6.4
#
# Track frame offsets:
#	150
#	13411
#	34302
#	47745
#	65120
#	79105
#	100778
#	114411
#	129715
#	155938
#	176202
#	194183
#	220923
#
# Disc length: 3989 seconds
#
# Revision: 7
# Processed by: cddbd v1.5.2PL0 Copyright (c) Steve Scherf et al.
# Submitted via: OrangeCD 6.4
#
DISCID=cc0f930d
DTITLE=Rosco Gordon - Memphis Telesee
DYEAR=2000
DGENRE=Blues
TTITLE0=Memphis Tennesee
TTITLE1=Sit Right Here
TTITLE2=Bad Dream
TTITLE3=It Takes A Lot of Lovin'
TTITLE4=No More Doggin'
TTITLE5=Now You're Gone
TTITLE6=Just A Little Bit
TTITLE7=Let's Get High
TTITLE8=Jelly Jelly
TTITLE9=Tell Me I'm The One
TTITLE10=Cheese and Crackers
TTITLE11=You Don't Care About Nothing
TTITLE12=Interview with Roscoe Gordon
EXTD=
EXTT0=
EXTT1=
EXTT2=
EXTT3=
EXTT4=
EXTT5=
EXTT6=
EXTT7=
EXTT8=
EXTT9=
EXTT10=
EXTT11=
EXTT12=
PLAYORDER=
